<?xml version="1.0" encoding="UTF-8" standalone="no"?>
<!DOCTYPE svg PUBLIC "-//W3C//DTD SVG 1.1//EN"
 "http://www.w3.org/Graphics/SVG/1.1/DTD/svg11.dtd">
<!-- Generated by graphviz version 2.40.1 (20161225.0304)
 -->
<!-- Title: G Pages: 1 -->
<svg width="271pt" height="268pt"
 viewBox="0.00 0.00 270.98 267.98" xmlns="http://www.w3.org/2000/svg" xmlns:xlink="http://www.w3.org/1999/xlink">
<g id="graph0" class="graph" transform="scale(1 1) rotate(0) translate(7.992 259.992)">
<title>G</title>
<polygon fill="#000000" stroke="transparent" points="-7.992,7.992 -7.992,-259.992 262.992,-259.992 262.992,7.992 -7.992,7.992"/>
<!-- a -->
<g id="node1" class="node">
<title>a</title>
<ellipse fill="none" stroke="#c6c5fe" cx="27" cy="-90" rx="27" ry="18"/>
<text text-anchor="middle" x="27" y="-86.8493" font-family="Arial" font-size="14.00" fill="#c6c5fe">a</text>
</g>
<!-- nodeps -->
<g id="node2" class="node">
<title>nodeps</title>
<ellipse fill="none" stroke="#cfffac" cx="54" cy="-18" rx="41.8646" ry="18"/>
<text text-anchor="middle" x="54" y="-14.8493" font-family="Arial" font-size="14.00" fill="#cfffac">nodeps</text>
</g>
<!-- a&#45;&gt;nodeps -->
<g id="edge1" class="edge">
<title>a&#45;&gt;nodeps</title>
<path fill="none" stroke="#757575" d="M33.6742,-72.2022C36.7247,-64.0675 40.4062,-54.2501 43.7932,-45.2181"/>
<polygon fill="#757575" stroke="#757575" points="47.0749,-46.4348 47.309,-35.8425 40.5206,-43.9769 47.0749,-46.4348"/>
</g>
<!-- b -->
<g id="node3" class="node">
<title>b</title>
<ellipse fill="none" stroke="#c6c5fe" cx="118" cy="-162" rx="27" ry="18"/>
<text text-anchor="middle" x="118" y="-158.8493" font-family="Arial" font-size="14.00" fill="#c6c5fe">b</text>
</g>
<!-- b&#45;&gt;a -->
<g id="edge2" class="edge">
<title>b&#45;&gt;a</title>
<path fill="none" stroke="#757575" d="M100.4543,-148.1177C86.8581,-137.3602 67.8247,-122.3009 52.5396,-110.2072"/>
<polygon fill="#757575" stroke="#757575" points="54.5058,-107.2998 44.4919,-103.8397 50.1624,-112.7893 54.5058,-107.2998"/>
</g>
<!-- b&#45;&gt;nodeps -->
<g id="edge5" class="edge">
<title>b&#45;&gt;nodeps</title>
<path fill="none" stroke="#757575" d="M110.2801,-144.6302C99.2881,-119.8982 79.0237,-74.3034 66.0459,-45.1034"/>
<polygon fill="#757575" stroke="#757575" points="69.2078,-43.5997 61.948,-35.8831 62.8111,-46.4427 69.2078,-43.5997"/>
</g>
<!-- b1 -->
<g id="node4" class="node">
<title>b1</title>
<ellipse fill="none" stroke="#cfffac" cx="209" cy="-90" rx="27" ry="18"/>
<text text-anchor="middle" x="209" y="-86.8493" font-family="Arial" font-size="14.00" fill="#cfffac">b1</text>
</g>
<!-- b&#45;&gt;b1 -->
<g id="edge3" class="edge">
<title>b&#45;&gt;b1</title>
<path fill="none" stroke="#757575" d="M135.5457,-148.1177C149.1419,-137.3602 168.1753,-122.3009 183.4604,-110.2072"/>
<polygon fill="#757575" stroke="#757575" points="185.8376,-112.7893 191.5081,-103.8397 181.4942,-107.2998 185.8376,-112.7893"/>
</g>
<!-- b2 -->
<g id="node5" class="node">
<title>b2</title>
<ellipse fill="none" stroke="#cfffac" cx="137" cy="-90" rx="27" ry="18"/>
<text text-anchor="middle" x="137" y="-86.8493" font-family="Arial" font-size="14.00" fill="#cfffac">b2</text>
</g>
<!-- b&#45;&gt;b2 -->
<g id="edge4" class="edge">
<title>b&#45;&gt;b2</title>
<path fill="none" stroke="#757575" d="M122.6966,-144.2022C124.7976,-136.2406 127.324,-126.6671 129.665,-117.7957"/>
<polygon fill="#757575" stroke="#757575" points="133.1241,-118.4046 132.2916,-107.8425 126.3558,-116.6185 133.1241,-118.4046"/>
</g>
<!-- c -->
<g id="node6" class="node">
<title>c</title>
<ellipse fill="none" stroke="#c6c5fe" cx="145" cy="-234" rx="27" ry="18"/>
<text text-anchor="middle" x="145" y="-230.8493" font-family="Arial" font-size="14.00" fill="#c6c5fe">c</text>
</g>
<!-- c&#45;&gt;b -->
<g id="edge6" class="edge">
<title>c&#45;&gt;b</title>
<path fill="none" stroke="#757575" d="M138.3258,-216.2022C135.2524,-208.0064 131.5384,-198.1024 128.1305,-189.0145"/>
<polygon fill="#757575" stroke="#757575" points="131.3858,-187.7274 124.5974,-179.593 124.8315,-190.1853 131.3858,-187.7274"/>
</g>
<!-- c&#45;&gt;b1 -->
<g id="edge7" class="edge">
<title>c&#45;&gt;b1</title>
<path fill="none" stroke="#757575" d="M152.7199,-216.6302C163.7717,-191.7638 184.1968,-145.8072 197.165,-116.6288"/>
<polygon fill="#757575" stroke="#757575" points="200.3896,-117.991 201.2527,-107.4314 193.9929,-115.148 200.3896,-117.991"/>
</g>
<!-- d -->
<g id="node7" class="node">
<title>d</title>
<ellipse fill="none" stroke="#c6c5fe" cx="228" cy="-162" rx="27" ry="18"/>
<text text-anchor="middle" x="228" y="-158.8493" font-family="Arial" font-size="14.00" fill="#c6c5fe">d</text>
</g>
<!-- d&#45;&gt;b1 -->
<g id="edge8" class="edge">
<title>d&#45;&gt;b1</title>
<path fill="none" stroke="#757575" d="M223.3034,-144.2022C221.2024,-136.2406 218.676,-126.6671 216.335,-117.7957"/>
<polygon fill="#757575" stroke="#757575" points="219.6442,-116.6185 213.7084,-107.8425 212.8759,-118.4046 219.6442,-116.6185"/>
</g>
</g>
</svg>
