<?xml version="1.0" encoding="UTF-8" standalone="no"?>
<!DOCTYPE svg PUBLIC "-//W3C//DTD SVG 1.1//EN"
 "http://www.w3.org/Graphics/SVG/1.1/DTD/svg11.dtd">
<!-- Generated by graphviz version 2.40.1 (20161225.0304)
 -->
<!-- Title: G Pages: 1 -->
<svg width="450pt" height="268pt"
 viewBox="0.00 0.00 449.91 267.98" xmlns="http://www.w3.org/2000/svg" xmlns:xlink="http://www.w3.org/1999/xlink">
<g id="graph0" class="graph" transform="scale(1 1) rotate(0) translate(7.992 259.992)">
<title>G</title>
<polygon fill="#000000" stroke="transparent" points="-7.992,7.992 -7.992,-259.992 441.9143,-259.992 441.9143,7.992 -7.992,7.992"/>
<!-- a -->
<g id="node1" class="node">
<title>a</title>
<ellipse fill="none" stroke="#c6c5fe" cx="98.9223" cy="-90" rx="27" ry="18"/>
<text text-anchor="middle" x="98.9223" y="-86.8493" font-family="Arial" font-size="14.00" fill="#c6c5fe">a</text>
</g>
<!-- nodefine -->
<g id="node2" class="node">
<title>nodefine</title>
<ellipse fill="none" stroke="#cfffac" cx="46.9223" cy="-18" rx="46.8447" ry="18"/>
<text text-anchor="middle" x="46.9223" y="-14.8493" font-family="Arial" font-size="14.00" fill="#cfffac">nodefine</text>
</g>
<!-- a&#45;&gt;nodefine -->
<g id="edge1" class="edge">
<title>a&#45;&gt;nodefine</title>
<path fill="none" stroke="#757575" d="M87.1227,-73.6621C80.7724,-64.8694 72.7918,-53.8194 65.6185,-43.887"/>
<polygon fill="#757575" stroke="#757575" points="68.276,-41.5888 59.5837,-35.5312 62.6013,-45.6872 68.276,-41.5888"/>
</g>
<!-- nodeps -->
<g id="node3" class="node">
<title>nodeps</title>
<ellipse fill="none" stroke="#cfffac" cx="153.9223" cy="-18" rx="41.8646" ry="18"/>
<text text-anchor="middle" x="153.9223" y="-14.8493" font-family="Arial" font-size="14.00" fill="#cfffac">nodeps</text>
</g>
<!-- a&#45;&gt;nodeps -->
<g id="edge2" class="edge">
<title>a&#45;&gt;nodeps</title>
<path fill="none" stroke="#757575" d="M111.4026,-73.6621C118.2367,-64.7157 126.8558,-53.4325 134.5444,-43.3674"/>
<polygon fill="#757575" stroke="#757575" points="137.4353,-45.3487 140.7244,-35.2773 131.8726,-41.0993 137.4353,-45.3487"/>
</g>
<!-- b -->
<g id="node4" class="node">
<title>b</title>
<ellipse fill="none" stroke="#c6c5fe" cx="230.9223" cy="-162" rx="27" ry="18"/>
<text text-anchor="middle" x="230.9223" y="-158.8493" font-family="Arial" font-size="14.00" fill="#c6c5fe">b</text>
</g>
<!-- b&#45;&gt;a -->
<g id="edge3" class="edge">
<title>b&#45;&gt;a</title>
<path fill="none" stroke="#757575" d="M210.0065,-150.5914C188.2187,-138.7071 153.8746,-119.974 129.1403,-106.4825"/>
<polygon fill="#757575" stroke="#757575" points="130.6323,-103.3096 120.1773,-101.5937 127.2803,-109.4549 130.6323,-103.3096"/>
</g>
<!-- b&#45;&gt;nodeps -->
<g id="edge7" class="edge">
<title>b&#45;&gt;nodeps</title>
<path fill="none" stroke="#757575" d="M211.8277,-149.1137C198.8595,-139.345 182.4021,-124.767 172.9223,-108 162.213,-89.0583 157.5212,-64.7835 155.4752,-46.2189"/>
<polygon fill="#757575" stroke="#757575" points="158.9402,-45.6745 154.5507,-36.0317 151.9689,-46.3071 158.9402,-45.6745"/>
</g>
<!-- b1 -->
<g id="node5" class="node">
<title>b1</title>
<ellipse fill="none" stroke="#cfffac" cx="406.9223" cy="-90" rx="27" ry="18"/>
<text text-anchor="middle" x="406.9223" y="-86.8493" font-family="Arial" font-size="14.00" fill="#cfffac">b1</text>
</g>
<!-- b&#45;&gt;b1 -->
<g id="edge4" class="edge">
<title>b&#45;&gt;b1</title>
<path fill="none" stroke="#757575" d="M254.9859,-153.5122C283.1054,-143.4118 330.8874,-125.6814 370.9223,-108 372.6961,-107.2166 374.5083,-106.3915 376.3299,-105.543"/>
<polygon fill="#757575" stroke="#757575" points="377.8853,-108.6788 385.3797,-101.1898 374.8509,-102.3706 377.8853,-108.6788"/>
</g>
<!-- b2 -->
<g id="node6" class="node">
<title>b2</title>
<ellipse fill="none" stroke="#cfffac" cx="208.9223" cy="-90" rx="27" ry="18"/>
<text text-anchor="middle" x="208.9223" y="-86.8493" font-family="Arial" font-size="14.00" fill="#cfffac">b2</text>
</g>
<!-- b&#45;&gt;b2 -->
<g id="edge5" class="edge">
<title>b&#45;&gt;b2</title>
<path fill="none" stroke="#757575" d="M225.4841,-144.2022C223.0249,-136.1541 220.0625,-126.4588 217.3271,-117.5067"/>
<polygon fill="#757575" stroke="#757575" points="220.6437,-116.3833 214.3742,-107.8425 213.9492,-118.4289 220.6437,-116.3833"/>
</g>
<!-- bNodefine -->
<g id="node7" class="node">
<title>bNodefine</title>
<ellipse fill="none" stroke="#cfffac" cx="307.9223" cy="-90" rx="53.9549" ry="18"/>
<text text-anchor="middle" x="307.9223" y="-86.8493" font-family="Arial" font-size="14.00" fill="#cfffac">bNodefine</text>
</g>
<!-- b&#45;&gt;bNodefine -->
<g id="edge6" class="edge">
<title>b&#45;&gt;bNodefine</title>
<path fill="none" stroke="#757575" d="M246.8767,-147.0816C257.0668,-137.5532 270.5104,-124.9825 282.1874,-114.0638"/>
<polygon fill="#757575" stroke="#757575" points="284.64,-116.5622 289.5538,-107.1757 279.859,-111.4492 284.64,-116.5622"/>
</g>
<!-- c -->
<g id="node8" class="node">
<title>c</title>
<ellipse fill="none" stroke="#c6c5fe" cx="257.9223" cy="-234" rx="27" ry="18"/>
<text text-anchor="middle" x="257.9223" y="-230.8493" font-family="Arial" font-size="14.00" fill="#c6c5fe">c</text>
</g>
<!-- c&#45;&gt;b -->
<g id="edge8" class="edge">
<title>c&#45;&gt;b</title>
<path fill="none" stroke="#757575" d="M251.2481,-216.2022C248.1747,-208.0064 244.4607,-198.1024 241.0527,-189.0145"/>
<polygon fill="#757575" stroke="#757575" points="244.3081,-187.7274 237.5197,-179.593 237.7538,-190.1853 244.3081,-187.7274"/>
</g>
<!-- c&#45;&gt;b1 -->
<g id="edge9" class="edge">
<title>c&#45;&gt;b1</title>
<path fill="none" stroke="#757575" d="M273.3067,-219.1318C299.628,-193.6938 353.4258,-141.7013 384.1226,-112.0346"/>
<polygon fill="#757575" stroke="#757575" points="386.6399,-114.4692 391.3983,-105.003 381.7753,-109.4357 386.6399,-114.4692"/>
</g>
<!-- d -->
<g id="node9" class="node">
<title>d</title>
<ellipse fill="none" stroke="#c6c5fe" cx="406.9223" cy="-162" rx="27" ry="18"/>
<text text-anchor="middle" x="406.9223" y="-158.8493" font-family="Arial" font-size="14.00" fill="#c6c5fe">d</text>
</g>
<!-- d&#45;&gt;b1 -->
<g id="edge10" class="edge">
<title>d&#45;&gt;b1</title>
<path fill="none" stroke="#757575" d="M406.9223,-143.8314C406.9223,-136.131 406.9223,-126.9743 406.9223,-118.4166"/>
<polygon fill="#757575" stroke="#757575" points="410.4224,-118.4132 406.9223,-108.4133 403.4224,-118.4133 410.4224,-118.4132"/>
</g>
<!-- unused -->
<g id="node10" class="node">
<title>unused</title>
<ellipse fill="none" stroke="#cfffac" cx="344.9223" cy="-234" rx="41.8646" ry="18"/>
<text text-anchor="middle" x="344.9223" y="-230.8493" font-family="Arial" font-size="14.00" fill="#cfffac">unused</text>
</g>
</g>
</svg>
